<svg width="52" height="52" viewBox="0 0 52 52" xmlns="http://www.w3.org/2000/svg" xmlns:xlink="http://www.w3.org/1999/xlink" style="background:#fff"><title>Artboard 4 Copy 4</title><defs><ellipse id="a" cx="23.538" cy="22.654" rx="5.538" ry="5.654"/><mask id="b" x="0" y="0" width="11.077" height="11.308" fill="#fff"><use xlink:href="#a"/></mask></defs><g transform="translate(2 6)" fill="none" fill-rule="evenodd"><ellipse fill="#9CEFE7" cx="24.06" cy="22.332" rx="13.06" ry="13.332"/><path d="M2.733 28.757C6.311 33.52 13.4 40.577 24 40.577s17.689-7.057 21.266-11.82M48 24.5S40 9.423 24 9.423 0 24.5 0 24.5M31.385 3.77L32.835 0m-16.22 3.77L15.165 0m29.143 11.308L48 7.538m-44.308 3.77L0 7.538" stroke="#087A70" stroke-width="1.9" stroke-linecap="round"/><use stroke="#087A70" mask="url(#b)" stroke-width="3.8" xlink:href="#a"/><circle fill="#FFF" cx="16.5" cy="30.623" r="5.5"/><path d="M22.154 21.296s-.554.707-.554 1.414c0 .706.554 1.413.554 1.413" stroke="#FFF" stroke-width="2.9" stroke-linecap="round"/></g></svg>
