<svg width="24" height="24" viewBox="0 0 24 24" xmlns="http://www.w3.org/2000/svg"><title>clock1.5</title><g fill="none" fill-rule="evenodd"><path d="M18.227 13.032a6.23 6.23 0 1 1-12.461 0 6.23 6.23 0 0 1 12.461 0" fill="#FF5F5A"/><path d="M13.693 13.032a1.696 1.696 0 1 1-3.393 0 1.696 1.696 0 0 1 3.393 0zm-.47-1.206l3.882-3.832" stroke="#4D4D4D" stroke-width="1.5" stroke-linecap="round" stroke-linejoin="round"/><path d="M19.5 19.83l2.21 2.028M2.553 16.69a10.104 10.104 0 0 1-.681-3.658c0-5.592 4.532-10.124 10.124-10.124 5.591 0 10.124 4.532 10.124 10.124 0 5.591-4.533 10.123-10.124 10.123a10.1 10.1 0 0 1-7.46-3.28l-.098.003-2.156 1.98M1.075 5.417a13.367 13.367 0 0 1 5.051-4.336m12.101.186a13.381 13.381 0 0 1 4.918 4.486" stroke="#666" stroke-width="1.5" stroke-linecap="round" stroke-linejoin="round"/></g></svg>